<svg xmlns="http://www.w3.org/2000/svg" width="512" height="512"><path fill="#FED05C" d="m244.715-.238 2.439-.03C265.821-.448 283.676.035 302 4l2.696.567c26.25 5.657 67.893 17.108 83.85 40.722 4.964 8.56 6.13 17.784 3.77 27.535-1.616 4.274-3.575 7.518-6.441 11.051-3.813 5.358-3.732 11.178-4.192 17.53-.578 7.656-1.662 15.586-5.703 22.286-3.663 6.23-3.366 11.853-3.105 18.934.166 8.304.023 15.971-1.437 24.148-.524 3.862-.507 7.589-.438 11.477.143 11.376-2.054 19.924-8 29.75l-2.374 2.254c-3.88 4.628-4.66 10.64-5.904 16.393-.474 2.19-.969 4.374-1.469 6.557-1.062 4.657-2.095 9.32-3.128 13.983-5.376 24.2-10.644 47.126-23.125 68.813l1.844.535c6.053 1.781 11.996 3.767 17.926 5.922l2.819 1.017q4.613 1.666 9.224 3.339l13.417 4.855 3.56 1.289a4805 4805 0 0 0 25.443 9.108q6.171 2.197 12.339 4.402 4.998 1.786 10.001 3.553c34.186 12.074 62.63 26.113 79.177 60.418C516.205 441.923 511 479.384 511 512H1c0-100.1 0-100.1 25-127l2.438-2.645C43.008 367.17 61.542 359.817 81 352.937q2.79-.999 5.577-2.001 6.195-2.224 12.397-4.432c11.475-4.087 22.939-8.204 34.404-12.32q6.36-2.284 12.724-4.556c19.58-6.967 19.58-6.967 38.898-14.628l-.839-1.506c-1.296-2.345-2.572-4.7-3.849-7.057l-1.318-2.365c-6.19-11.51-9.443-24.039-12.241-36.73a853 853 0 0 0-1.457-6.44 2323 2323 0 0 1-4.131-18.27c-.833-3.765-1.691-7.522-2.566-11.276a316 316 0 0 1-.943-4.243c-1.816-8.433-4.246-14.965-9.812-21.716-6.872-8.933-6.979-20.467-6.781-31.272.057-4.025-.431-7.775-1.063-11.75-1.04-6.944-.974-13.615-.812-20.625.156-8.881-.593-15.009-5.188-22.75-1.951-4.713-2.97-9.46-3.566-14.512C128.99 92.44 125.944 83.541 120 73c-2.633-7.9-1.861-17.296 1.707-24.773C127.411 38.404 136.395 33.503 146 28l2.057-1.193C159.54 20.215 171.497 15.314 184 11l2.17-.75C204.761 3.985 225.071-.039 244.714-.238"/><path fill="#00B3E3" d="M160 327c1.717 2.502 1.717 2.502 3.434 5.852l.951 1.823q1.014 1.948 2.01 3.905c1.765 3.462 3.571 6.902 5.37 10.346l1.093 2.1c3.135 6.011 6.448 11.91 9.83 17.786 5.057 8.83 9.787 17.798 14.436 26.849 4.154 8.05 8.556 15.932 13.058 23.791 4.442 7.79 8.6 15.708 12.71 23.677a317 317 0 0 0 9.553 17.164c2.35 4.092 4.376 8.335 6.453 12.57 3.147 6.295 6.603 12.432 10.015 18.586l1.513 2.742 1.356 2.444c1.24 2.407 2.254 4.837 3.218 7.365 3.14-2.678 4.815-6.079 6.688-9.68l1.041-1.969a1807 1807 0 0 0 3.271-6.226q1.634-3.104 3.27-6.205 1.017-1.926 2.028-3.856c1.4-2.663 2.832-5.28 4.39-7.854 1.252-2.109 1.868-3.813 2.312-6.21h2l.633-2.312c1.92-5.177 4.579-9.86 7.242-14.688l1.758-3.215a4103 4103 0 0 1 3.612-6.59c2.596-4.726 5.175-9.46 7.755-14.195l1.482-2.716a7763 7763 0 0 0 22.805-42.109c20.629-38.35 20.629-38.35 27.713-50.175 6.706 1.349 12.958 3.256 19.375 5.605l2.99 1.08c3.213 1.162 6.424 2.332 9.635 3.502l6.706 2.436q5.124 1.86 10.246 3.725 9.529 3.474 19.082 6.88c3.69 1.316 7.375 2.641 11.06 3.967q2.55.915 5.105 1.818c28.662 10.14 50.974 26.253 64.942 53.944C516.899 439.894 511 480.493 511 512H1c0-100.1 0-100.1 25-127l2.438-2.645c14.8-15.425 33.679-22.748 53.437-29.73q2.832-1.012 5.662-2.025 4.477-1.604 8.957-3.2c7.803-2.779 15.582-5.619 23.358-8.474l10.29-3.76q3.351-1.226 6.698-2.462c3.123-1.153 6.25-2.291 9.379-3.427l2.828-1.055 2.607-.937 2.263-.83c2.434-.532 3.777-.38 6.083.545"/><path fill="#40596B" d="m244.715-.238 2.439-.03C265.821-.448 283.676.035 302 4l2.696.567c26.25 5.657 67.893 17.108 83.85 40.722 4.964 8.56 6.13 17.784 3.77 27.535-1.616 4.274-3.575 7.518-6.441 11.051-3.813 5.358-3.732 11.178-4.192 17.53-.578 7.656-1.662 15.586-5.703 22.286-3.663 6.23-3.367 11.853-3.105 18.934.19 9.378.003 18.151-1.875 27.375l-3 1-.25 2.625c-1.115 5.015-3.215 8.215-7.312 11.313C358 186 358 186 355 185c-3.429-5.955-2.072-12.57-1-19a74.4 74.4 0 0 0-1-15c-4.18 1.716-8.102 3.557-12.032 5.804-40.882 23.165-98.159 22.785-142.39 11.071-12.54-3.58-24.664-8.74-35.578-15.875-2.123-.64-2.123-.64-4-1-.968 5.809-1.697 11.6-.5 17.438 1.276 6.539 1.065 11.77-2.5 17.562-3.187.188-3.187.188-7-1-2.793-4.265-5-8.857-5-14h-2c-2.792-8.563-3.097-16.897-2.833-25.855.27-10.01.04-17.373-5.167-26.145-1.951-4.713-2.97-9.46-3.566-14.512C128.99 92.44 125.944 83.541 120 73c-2.633-7.9-1.861-17.296 1.707-24.773C127.411 38.404 136.395 33.503 146 28l2.057-1.193C159.54 20.215 171.497 15.314 184 11l2.17-.75C204.761 3.985 225.071-.039 244.714-.238"/><path fill="#3F586A" d="M138 333c-.601 4.361-1.674 8.175-3.25 12.281l-1.344 3.551-2.812 7.336-1.344 3.55-1.234 3.218c-1.003 3.024-1.582 5.912-2.016 9.064l2.02.734c3.72 1.58 7.16 3.515 10.667 5.516l2.131 1.207A568 568 0 0 1 157 389c-3.426 6.326-7.485 12.124-11.625 18l-4.29 6.148q-2.896 4.156-5.807 8.302a806 806 0 0 0-4.278 6.175l-1.256 1.77c-2.317 3.405-3.163 5.513-2.744 9.605 1.025 2.075 1.025 2.075 2.57 3.977l1.696 2.252 1.859 2.396q1.942 2.566 3.883 5.133l2.016 2.641c3.039 4 6.006 8.05 8.976 12.101l3.488 4.734 1.749 2.373 7.169 9.726 5.239 7.112q3.333 4.528 6.68 9.047l3.05 4.133c.47.634.941 1.268 1.427 1.92C180 510.888 180 510.888 180 512H1c0-100.1 0-100.1 25-127l2.438-2.645c15.133-15.772 34.5-23.034 54.687-30.168l5.814-2.082q4.368-1.567 8.738-3.126c5.943-2.12 11.874-4.27 17.792-6.46l2.149-.794q3.963-1.465 7.924-2.939 2.622-.974 5.247-1.942l2.928-1.088C136 333 136 333 138 333M374 333c8.255 2.352 16.331 5.16 24.414 8.043l2.051.73q5.379 1.916 10.754 3.84 4.387 1.57 8.78 3.122c35.267 12.464 65.574 26.092 82.751 61.702C516.205 441.924 511 479.385 511 512H332c4.053-6.08 8.146-12.021 12.5-17.875l3.715-5.02 1.902-2.564a6238 6238 0 0 0 10.684-14.46 1948 1948 0 0 0 13.762-18.945l1.5-2.085 1.445-2.037a78 78 0 0 1 3.234-4.063c2.72-3.261 4.189-5.057 4.524-9.373-1.738-4.913-4.429-8.662-7.516-12.828q-1.905-2.647-3.809-5.297l-1.972-2.72c-3.15-4.372-6.223-8.796-9.281-13.233L361 399.093l-1.552-2.25-1.364-1.962c-1.129-1.957-1.65-3.674-2.085-5.881a27750 27750 0 0 1 15.886-9.661q2.896-1.762 5.794-3.523l1.824-1.11c4.268-2.592 4.268-2.592 6.496-3.706-.698-4.196-2.008-7.968-3.504-11.945l-1.494-4.012q-1.176-3.138-2.357-6.274-1.142-3.043-2.274-6.09l-1.377-3.664C374 336 374 336 374 333"/><path fill="#40596B" d="m253.75 116.813 2.356-.004c36.148.006 73.463 3.644 107.894 15.191l3.434 1.14L370 134l2-4c1.055 5.2 1.192 10.219 1.188 15.5l.001 2.655c-.06 7.424-.834 14.538-2.189 21.845l-3 1-.25 2.625c-1.115 5.015-3.215 8.215-7.312 11.313C358 186 358 186 355 185c-3.429-5.955-2.072-12.57-1-19a74.4 74.4 0 0 0-1-15c-4.18 1.716-8.102 3.557-12.032 5.804-40.882 23.165-98.159 22.785-142.39 11.071-12.54-3.58-24.664-8.74-35.578-15.875-2.123-.64-2.123-.64-4-1-.968 5.809-1.697 11.6-.5 17.438 1.276 6.539 1.065 11.77-2.5 17.562-3.187.188-3.187.188-7-1-2.793-4.265-5-8.857-5-14h-2c-3.217-9.864-3.14-19.83-3.062-30.125l.013-3.477q.018-4.2.049-8.398h2l2 4 2.07-.58c21.945-6.109 43.308-10.682 65.967-13.095 2.644-.29 5.281-.615 7.92-.954 11.59-1.403 23.134-1.555 34.793-1.558"/><path fill="#AAB2B9" d="M381 105c-.948 9.034-3.678 17.003-8 25h-2l-1 4c-4.822-.678-9.36-1.942-14-3.375-18.845-5.64-38.457-8.726-58-10.812l-2.02-.218c-14.05-1.382-28.12-1.802-42.23-1.782l-2.455.001c-11.574.024-22.986.326-34.476 1.827-3.349.427-6.702.797-10.057 1.171-21.697 2.508-42.87 6.73-63.762 13.188l-2-2v-3l-3-1c-3.697-6.955-7-15.064-7-23 10.083-3.563 20.091-6.401 30.563-8.625l2.09-.452c11.297-2.435 22.598-4.331 34.08-5.651 2.087-.25 4.162-.54 6.24-.854C260.949 80.948 326.815 85.971 381 105"/><path fill="#F0F1F0" d="M326 317c6.492.534 11.945 2.214 18 4.563l2.637.998q3.186 1.208 6.363 2.439c-1.26 4.065-2.765 7.695-4.8 11.43-.56 1.03-1.117 2.06-1.693 3.122l-1.82 3.323-2.852 5.252q-1.464 2.69-2.93 5.378a4117 4117 0 0 0-6.925 12.777 7892 7892 0 0 1-15.465 28.439 7454 7454 0 0 0-21.273 39.26l-1.893 3.518-3.593 6.686A1171 1171 0 0 1 280 462h-2q-1.258-8.083-2.509-16.168l-.852-5.49q-.616-3.966-1.229-7.932l-.382-2.444a495 495 0 0 1-.695-4.661q-.346-2.388-.74-4.767l-.355-2.404-.34-2.15c.136-2.634 1.105-3.637 2.883-5.53a114 114 0 0 1 3.719-3.204 205 205 0 0 0 3.719-3.234l1.685-1.398c1.356-1.621 1.356-1.621.816-3.968-.726-2.672-1.602-4.393-3.144-6.674l-1.527-2.285-1.65-2.421-1.685-2.52q-2.66-3.975-5.339-7.937a2616 2616 0 0 1-7.04-10.481l-1.662-2.44-1.507-2.256-1.344-1.987L258 358l1-2c2.388-.355 4.723-.607 7.125-.812 21.753-2.32 39.434-13.06 53.875-29.188a104 104 0 0 0 6-9M185.277 316.774c2.15 1.53 2.85 2.911 3.973 5.289 4.259 8.1 9.676 13.739 17.75 17.937l2 3a126 126 0 0 0 7 3l3.254 1.5c9.775 4.432 19.336 7.045 30.059 8.063L253 356l1 2-.994 1.447c-3.408 4.968-6.795 9.95-10.17 14.94q-1.893 2.793-3.803 5.573a1128 1128 0 0 0-5.443 8.02l-1.74 2.507-1.577 2.365-1.406 2.066c-1.155 2.774-.834 4.27.133 7.082 1.478 1.167 2.963 2.328 4.497 3.42 3.231 2.444 5.735 4.895 7.503 8.58 1.15 8.383-1.152 17.049-2.75 25.25q-.597 3.457-1.176 6.918A704 704 0 0 1 234 463c-3.012-2.843-4.773-6.013-6.66-9.66l-1.048-1.991q-1.11-2.11-2.211-4.22c-1.92-3.678-3.857-7.346-5.792-11.016l-1.146-2.176a642 642 0 0 0-8.33-15.312c-5.802-10.334-11.385-20.786-16.99-31.229-7.428-13.837-14.866-27.67-22.386-41.458l-1.443-2.648-1.373-2.513-1.309-2.399q-1.364-2.471-2.76-4.924l-1.392-2.45-1.257-2.19C159 327 159 327 159 325c3.907-1.567 7.827-3.099 11.75-4.625l3.367-1.352 3.242-1.25 2.984-1.174c2.657-.599 2.657-.599 4.934.175"/><path fill="#E72590" d="M254 357c4.528.536 4.528.536 6.595 2.567l1.375 2.047 1.586 2.317 1.655 2.522 1.734 2.583a807 807 0 0 1 3.596 5.427 782 782 0 0 0 5.549 8.283q1.751 2.633 3.496 5.27l1.691 2.497 1.53 2.355 1.36 2.057c1.112 2.77.772 4.271-.167 7.075a102 102 0 0 1-7.871 7.188c-1.681 1.524-2.958 2.865-4.129 4.812-.024 3.345.322 5.77 1 9q.447 2.828.877 5.659.482 3.188.988 6.374l.347 2.196q.35 2.205.707 4.412c.77 4.778 1.464 9.558 2.081 14.359l.383 2.81c.576 7.75-3.17 13.524-6.945 20.065l-1.846 3.316A875 875 0 0 1 264 492l-1.957 3.493-1.883 3.327-1.695 3.016L257 504h-2l-1.066-1.981q-1.575-2.922-3.152-5.843a3633 3633 0 0 1-3.57-6.63c-3.79-7.031-3.79-7.031-7.857-13.905l-1.13-1.848a305 305 0 0 0-2.932-4.598c-2.963-7.322-1.086-15.399.477-22.902q.504-2.733.998-5.467a266 266 0 0 1 1.65-8.45c2.61-10.432 2.61-10.432.377-20.483-2.666-3.24-5.651-5.767-8.972-8.306L227 401c.255-3.661 1.474-6.142 3.5-9.148l1.577-2.365 1.708-2.507 1.745-2.601c1.836-2.736 3.684-5.464 5.532-8.192q1.874-2.783 3.745-5.568Q249.39 363.802 254 357"/><path fill="#334A5E" d="M137 485v27H51v-26l79.481-.937C135.886 485 135.886 485 137 485M375 486h86v26h-86z"/><path fill="#F5B44C" d="M267.254 20.805C272.04 24.08 276.16 28.425 278 34c.854 6.756.904 13.316-2.668 19.285-3.801 4.894-8.15 8.526-14.332 9.715-7.17.706-13.096.406-19-4-4.992-4.592-7.638-8.945-8.25-15.797-.255-6.403-.08-11.282 4.25-16.203 8.394-8.552 18.055-12.64 29.254-6.195"/><path fill="#C8D3DF" d="M285 400c3.905 4.686 7.162 9.71 10.465 14.824 2.21 3.663 2.21 3.663 5.535 6.176-1.31 4.266-2.951 8.04-5.082 11.957l-1.826 3.373-1.904 3.483-1.87 3.447A1764 1764 0 0 1 280 462h-2q-1.258-8.083-2.509-16.168l-.852-5.49q-.616-3.966-1.229-7.932l-.382-2.444q-.358-2.33-.694-4.663-.346-2.38-.748-4.752c-.893-5.946-.893-5.946.586-8.858l1.793-1.634 1.924-1.827 2.048-1.795 2.038-1.9A241 241 0 0 1 285 400"/><path fill="#C8D4DF" d="M226 400a243 243 0 0 1 4.919 4.188q2.075 1.807 4.248 3.5c5.575 4.744 5.575 4.744 6.26 8.916-.175 3.035-.613 5.908-1.177 8.896l-.505 3.261c-.54 3.422-1.141 6.829-1.745 10.239q-.567 3.486-1.121 6.973A1085 1085 0 0 1 234 463c-3.14-2.95-4.94-6.328-6.906-10.117l-1.11-2.104a2051 2051 0 0 1-3.484-6.654 5697 5697 0 0 0-3.485-6.633q-1.083-2.06-2.16-4.124c-1.47-2.803-2.96-5.533-4.662-8.204L211 423c1.204-2.408 2.663-4.55 4.16-6.79l1.904-2.85 1.999-2.985 2.01-3.008q2.46-3.684 4.927-7.367"/><path fill="#354B5E" d="M139 129h2l1.5 2.938c3.44 6.014 8.084 11.382 13.77 15.335C159 150 159 150 159.332 153.813a94 94 0 0 1-.52 4.187c-.54 4.548-.93 8.502.188 13 .526 5.811.14 9.897-3 15-3.187.188-3.187.188-7-1-2.793-4.265-5-8.857-5-14h-2c-3.217-9.864-3.14-19.83-3.062-30.125l.013-3.477q.018-4.2.049-8.398"/><path fill="#344B5E" d="M371 130h1c1.055 5.2 1.192 10.219 1.188 15.5l.001 2.655c-.06 7.424-.834 14.538-2.189 21.845l-3 1-.25 2.625c-1.115 5.015-3.215 8.215-7.312 11.313C358 186 358 186 355 185c-3.429-5.955-2.072-12.57-1-19 .281-5.811-.403-10.41-2-16l1.504-1.031c5.614-4.006 11.354-8.685 14.496-14.969h2z"/></svg>