<svg xmlns="http://www.w3.org/2000/svg" width="512" height="512"><path fill="#E7238F" d="m255.75-.437 2.768.009C273.018-.358 286.858.614 301 4l2.887.65C337.262 12.212 368.106 27.58 394 50l2.473 2.137C435.543 86.625 461.443 134.919 467 187l.336 2.898c4.952 50.996-7.922 102.906-37.274 144.977l-1.3 1.868c-9.49 13.153-20.887 24.67-32.353 36.075l-4.586 4.587a9803 9803 0 0 1-12.339 12.314q-6.471 6.456-12.936 12.92a40348 40348 0 0 1-24.447 24.404q-13.93 13.9-27.852 27.809Q285.633 483.435 257 512c-3.936-1.594-6.586-4.309-9.521-7.274l-1.654-1.646c-1.827-1.822-3.648-3.652-5.469-5.48l-3.928-3.923a7157 7157 0 0 1-10.662-10.675q-5.58-5.591-11.169-11.175-9.387-9.39-18.765-18.79-10.827-10.848-21.666-21.686-11.55-11.55-23.093-23.108l-6.639-6.642q-5.232-5.235-10.458-10.475-1.912-1.917-3.827-3.831c-11.67-11.667-11.67-11.667-16.872-17.798-1.594-1.869-3.3-3.588-5.074-5.286l-1.95-1.892c-.66-.642-1.322-1.283-2.003-1.944C97.14 353.367 90.897 346.045 85 338l-1.91-2.566C62.266 306.64 48.983 272.3 45 237l-.34-2.914C39.385 179.306 54.63 124.122 89 81l2.41-3.031C103.006 63.698 116.154 50.846 131 40l2.492-1.871C168.771 12.413 212.296-.747 255.75-.437"/><path fill="#F2F2F2" d="m300 79 3.078 1.016C323.153 87.178 339.571 98.478 355 113l2.008 1.813c25.824 24.256 38.38 60.631 39.933 95.27.757 37.403-14.242 73.106-39.941 99.917l-2.258 2.45C335.43 332.75 309.23 345.42 282 351l-2.965.68c-35.209 6.9-72.61-3.077-102.035-22.68-31.9-21.716-52.512-54.733-59.8-92.398-6.31-35.87 1.82-73.099 22.469-103.124C144.333 126.896 149.42 120.83 155 115l2.188-2.414C167.198 101.933 179.888 93.392 193 87l2.996-1.512C228.316 69.783 265.983 67.55 300 79"/><path fill="#FDD05D" d="M255 129c3.058 1.366 5.159 2.91 7.518 5.278l2.057 2.048 2.223 2.245 2.366 2.365q3.869 3.874 7.727 7.76l5.363 5.372q6.337 6.348 12.665 12.707 7.206 7.238 14.423 14.466A35136 35136 0 0 1 339 211l-2 1-1 93H176c-5.734-94.353-5.734-94.353 10.974-113.523 8.195-8.941 18.071-16.452 28.192-23.053 4.087-2.729 7.11-5.671 10.215-9.461 2.604-3.158 5.523-5.99 8.428-8.87l1.853-1.848q2.885-2.875 5.775-5.745l3.952-3.937A8880 8880 0 0 1 255 129"/><path fill="#0ABBE3" d="M261.834 100.837c5.803 3.598 10.448 8.02 15.244 12.853l2.634 2.618q3.543 3.528 7.07 7.072c2.47 2.476 4.945 4.945 7.42 7.415q6.22 6.213 12.426 12.442a5935 5935 0 0 0 14.384 14.378q6.192 6.173 12.37 12.362 3.685 3.694 7.38 7.376c2.74 2.73 5.468 5.472 8.195 8.216l2.484 2.465 2.234 2.26 1.957 1.96C357 194 357 194 357 197h2c1.49 4.473 1.49 8.527 0 13h-2v3c-3.207 1.879-5.734 2.35-9.438 2.438l-2.808.12c-3.69-.748-5.253-2.928-7.754-5.558q-1.815-1.823-3.638-3.638L257 130c-2.863 1.379-4.94 2.69-7.189 4.946L248 136.748l-1.926 1.947-2.017 2.02a1803 1803 0 0 0-4.219 4.241 2109 2109 0 0 1-6.399 6.419l-4.115 4.133-1.907 1.91c-3.048 3.08-5.99 6.206-8.817 9.49-3.957 4.574-8.22 8.802-12.526 13.045l-5.1 5.063q-3.982 3.946-7.972 7.886a4043 4043 0 0 0-7.74 7.676l-2.421 2.38-2.237 2.227-1.968 1.945c-1.723 1.803-1.723 1.803-2.697 4.062L175 213c-2.625.75-2.625.75-5 1v2c-1.937.054-3.875.093-5.813.125l-3.269.07C158 216 158 216 155 214c-2.781-4.224-3.363-7.743-3.496-12.656 1.499-7.08 8.217-12.355 13.117-17.24l2.632-2.647q3.56-3.575 7.129-7.14 2.984-2.984 5.963-5.972 7.033-7.05 14.08-14.085 7.255-7.249 14.491-14.52 6.227-6.251 12.47-12.489 3.721-3.719 7.434-7.45c2.759-2.773 5.529-5.534 8.3-8.294l2.466-2.489c6.078-6.022 13.252-12.288 22.248-8.18"/><path fill="#2F404F" d="M229 241h55v64h-55z"/></svg>