<svg xmlns="http://www.w3.org/2000/svg" width="512" height="512"><path fill="#E9C25B" d="m57.156 11.497 2.123-.018c2.348-.015 4.695 0 7.043.013q2.55-.006 5.101-.019c4.673-.017 9.345-.008 14.017.004 5.04.01 10.078-.005 15.117-.016 9.871-.018 19.742-.014 29.614-.002a14422 14422 0 0 0 27.52.004l6.954-.004c21.74-.011 43.481.002 65.222.023q27.993.025 55.985-.003a41791 41791 0 0 1 75.356-.012q12.02.003 24.04-.012 14.646-.017 29.29.013c4.983.01 9.966.015 14.949.001q6.84-.017 13.678.016 2.478.007 4.954-.007c2.242-.012 4.483 0 6.725.019 1.246 0 2.492 0 3.776.002 5.307.787 8.359 3.269 11.725 7.331 1.888 3.616 2.149 5.831 2.136 9.89l.01 1.97c.007 2.166-.015 4.33-.037 6.495q-.001 2.337.002 4.673c.001 4.218-.022 8.437-.05 12.655-.025 4.412-.028 8.825-.033 13.237a7544 7544 0 0 1-.085 25.053c-.045 9.509-.067 19.018-.087 28.527-.041 19.557-.112 39.113-.201 58.67l2.304.892c3.28 1.348 6.272 3.08 9.317 4.881l1.886 1.107q1.966 1.155 3.93 2.314 2.984 1.76 5.971 3.51 1.92 1.127 3.838 2.257l1.781 1.045c1.665.985 3.32 1.99 4.973 2.994l3.157 1.433c3.193 2.883 3.29 3.343 3.592 7.41.031 2.07.028 4.143 0 6.214l.024 3.458c.019 3.839-.005 7.676-.028 11.515.001 2.746.012 5.493.022 8.239a3107 3107 0 0 1-.019 20.083c-.027 7.797-.024 15.595-.02 23.392.007 13.916-.016 27.831-.056 41.747q-.058 20.248-.04 40.496a18602 18602 0 0 1-.019 48.799l-.004 2.338q-.009 8.149-.003 16.298.008 9.937-.035 19.876-.022 5.069-.013 10.137c.006 3.667-.012 7.333-.037 11l.023 3.223c-.088 7.472-1.532 12.905-6.509 18.584l-1.973 1.633-1.964 1.68c-4.878 3.36-9.36 3.734-15.156 3.702l-2.456.01c-2.727.01-5.453.005-8.18 0l-5.911.014c-5.423.012-10.846.012-16.27.01-5.845 0-11.69.01-17.536.02q-17.182.024-34.366.023a48183 48183 0 0 0-35.966.017l-2.018.001q-28.102.02-56.206.02h-2.14l-10.743-.001h-6.469q-33.564-.002-67.129.04-37.703.048-75.405.047-19.965-.003-39.93.026-16.998.029-33.996.009c-5.783-.007-11.566-.007-17.35.01q-7.938.024-15.878-.004-2.874-.005-5.748.012c-2.604.014-5.206.003-7.81-.013l-2.255.03c-6.44-.087-11.574-2.244-16.422-6.493l-1.633-1.973-1.68-1.964c-2.662-3.864-3.691-7.387-3.747-12.053l-.05-2.963-.023-3.232-.048-3.453c-.05-3.825-.086-7.651-.121-11.477l-.073-6.126c-.312-25.7-.462-51.403-.584-77.105l-.049-10.036-.012-2.52a5108 5108 0 0 0-.39-40.383 3882 3882 0 0 1-.311-41.495 1496 1496 0 0 0-.213-23.284c-.119-6.612-.17-13.22-.133-19.834.017-3.375-.01-6.734-.102-10.109-.514-19.713-.514-19.713 4.39-25.271 4.793-3.872 10.035-6.452 15.712-8.777 2.908-1.234 5.497-2.82 8.13-4.558l2.238-1.387q2.174-1.352 4.343-2.71C37.782 180 37.782 180 40 180l-.011-2.45q-.134-29.52-.196-59.041c-.02-9.517-.049-19.034-.095-28.551q-.06-12.443-.074-24.886c-.006-4.393-.018-8.784-.047-13.177q-.039-6.202-.03-12.405a484 484 0 0 0-.024-4.55c-.02-2.074-.015-4.146-.004-6.22l-.011-3.514c.797-5.195 3.129-8.122 7.191-11.351 3.833-2.154 6.086-2.356 10.457-2.358"/><path fill="#EEE" d="m57.156 11.497 2.123-.018c2.348-.015 4.695 0 7.043.013q2.55-.006 5.101-.019c4.673-.017 9.345-.008 14.017.004 5.04.01 10.078-.005 15.117-.016 9.871-.018 19.742-.014 29.614-.002a14422 14422 0 0 0 27.52.004l6.954-.004c21.74-.011 43.481.002 65.222.023q27.993.025 55.985-.003a41791 41791 0 0 1 75.356-.012q12.02.003 24.04-.012 14.646-.017 29.29.013c4.983.01 9.966.015 14.949.001q6.84-.017 13.678.016 2.478.007 4.954-.007c2.242-.012 4.483 0 6.725.019 1.246 0 2.492 0 3.776.002 5.26.78 8.318 3.265 11.725 7.231 2.003 3.958 2.202 7.251 2.136 11.584l.01 2.49c.007 2.746-.015 5.491-.037 8.237q-.001 2.956.002 5.913c.001 5.347-.022 10.694-.05 16.04-.025 5.59-.028 11.179-.033 16.768-.012 10.583-.045 21.165-.085 31.747-.045 12.048-.067 24.096-.087 36.144-.042 24.783-.112 49.565-.201 74.347l-3.031 1.297-16.151 6.915c-11.567 4.95-23.107 9.952-34.602 15.066q-6.718 2.986-13.443 5.96l-2.739 1.213a4805 4805 0 0 1-27.659 12.111Q354.421 273.244 334.5 282a12376 12376 0 0 1-48.413 21.16q-2.22.964-4.445 1.918a227 227 0 0 0-11.451 5.296l-2.414 1.167a152 152 0 0 0-4.506 2.28c-4.027 1.926-6.486 2.485-10.8 1.098A132 132 0 0 1 248 313l-2.004-.817a236 236 0 0 1-5.965-2.562l-2.245-.981a3445 3445 0 0 1-7.286-3.203l-5.193-2.275q-6.802-2.981-13.598-5.97-6.51-2.862-13.022-5.72-7.672-3.367-15.343-6.738c-11.606-5.1-23.221-10.174-34.844-15.234a13237 13237 0 0 1-42.55-18.621 13341 13341 0 0 0-44.378-19.399l-2.358-1.026-4.295-1.868a1452 1452 0 0 1-10.666-4.694l-2.423-1.078L40 222a40374 40374 0 0 1-.207-77.92c-.02-12.059-.049-24.119-.095-36.178q-.06-15.765-.074-31.53c-.006-5.567-.018-11.133-.047-16.698q-.039-7.858-.03-15.715 0-2.884-.024-5.769c-.02-2.625-.015-5.25-.004-7.876l-.035-2.305C39.542 22.84 40.639 19.913 44 16c4.502-3.568 7.44-4.5 13.156-4.503"/><path fill="#D6D9DB" d="M140 131c2.503 2.315 4.257 4.77 6.074 7.648l1.763 2.781 1.85 2.946 1.89 2.989c4.53 7.178 9.016 14.382 13.423 21.636l-.437-2.23-.563-2.958-.562-2.917c-.145-.956-.29-1.91-.438-2.895l-.469-2.437c.776-4.243 3.9-6.515 6.969-9.375l1.879-1.811c1.53-1.47 3.074-2.925 4.621-4.377 3.714 4.493 7.04 9.224 10.375 14l1.829 2.614c6.75 9.693 13.289 19.528 19.796 29.386-1.695 3.85-1.695 3.85-4.441 5.195-14.786 4.404-29.655 5.142-44.997 5.066-2.56-.011-5.12 0-7.68.012-8.115.008-16.13-.234-24.198-1.16l-2.048-.233c-6.824-.878-13.473-2.798-19.636-5.88.506-5.23 3.205-9.035 5.938-13.375l1.502-2.42c3.833-6.138 7.81-12.172 11.857-18.17 3.335-4.952 6.579-9.964 9.828-14.972l1.761-2.715q2.058-3.173 4.114-6.348M251.87 143.365l2.056-.024c2.267-.02 4.533-.004 6.8.012q2.443-.01 4.885-.027c4.417-.022 8.834-.013 13.252.002 4.623.013 9.246.001 13.87-.007 7.764-.009 15.528.003 23.292.027 8.976.027 17.951.019 26.927-.009q11.56-.034 23.121-.013c4.603.008 9.206.009 13.809-.007q6.49-.021 12.981.024 2.382.01 4.764-.006c2.169-.014 4.335.003 6.503.028l3.676.006c4.117.81 5.612 2.389 8.194 5.629.625 3 .625 3 0 6-2.582 3.24-4.077 4.818-8.194 5.63l-3.676.005-2.056.024c-2.267.02-4.533.004-6.8-.012q-2.443.01-4.885.027c-4.417.022-8.834.013-13.252-.002-4.623-.013-9.246-.001-13.87.007-7.764.009-15.528-.003-23.292-.027-8.976-.027-17.951-.019-26.927.009q-11.56.034-23.121.013a2614 2614 0 0 0-13.809.007q-6.49.021-12.981-.024a429 429 0 0 0-4.764.006c-2.169.014-4.335-.003-6.503-.028l-3.676-.006c-4.117-.81-5.612-2.389-8.194-5.629-.625-3-.625-3 0-6 3.688-4.629 6.01-5.626 11.87-5.635M251.87 111.365l2.056-.024c2.267-.02 4.533-.004 6.8.012q2.443-.01 4.885-.027c4.417-.022 8.834-.013 13.252.002 4.623.013 9.246.001 13.87-.007 7.764-.009 15.528.003 23.292.027 8.976.027 17.951.019 26.927-.009q11.56-.033 23.121-.013c4.603.008 9.206.009 13.809-.007q6.49-.021 12.981.024 2.382.01 4.764-.006c2.169-.014 4.335.003 6.503.028l3.676.006c4.117.81 5.612 2.389 8.194 5.629.625 3 .625 3 0 6-2.582 3.24-4.077 4.818-8.194 5.63l-3.676.005-2.056.024c-2.267.02-4.533.004-6.8-.012q-2.443.01-4.885.027c-4.417.022-8.834.013-13.252-.002-4.623-.013-9.246-.001-13.87.007-7.764.009-15.528-.003-23.292-.027-8.976-.027-17.951-.019-26.927.009q-11.56.034-23.121.013a2614 2614 0 0 0-13.809.007q-6.49.021-12.981-.024a429 429 0 0 0-4.764.006c-2.169.014-4.335-.003-6.503-.028l-3.676-.006c-4.117-.81-5.612-2.389-8.194-5.629-.625-3-.625-3 0-6 3.688-4.629 6.01-5.626 11.87-5.635M257.055 175.353l3.702-.027c3.343-.018 6.685-.013 10.028.002 3.503.013 7.005.001 10.507-.007 5.882-.009 11.762.003 17.644.027 6.794.027 13.588.019 20.382-.009a2858 2858 0 0 1 17.517-.013c3.485.008 6.97.01 10.454-.007 3.886-.018 7.77.006 11.656.034l3.492-.03c7.779.103 7.779.103 11.777 3.03C376 181 376 181 376.625 184c-.884 4.244-2.11 5.427-5.625 8-4.012.757-7.982.683-12.055.647l-3.702.027c-3.343.018-6.685.013-10.028-.002-3.503-.013-7.005-.001-10.507.007-5.882.009-11.762-.003-17.644-.027-6.794-.027-13.588-.019-20.382.009a2858 2858 0 0 1-17.517.013c-3.485-.008-6.97-.01-10.454.007-3.886.018-7.77-.006-11.656-.034l-3.492.03c-7.779-.103-7.779-.103-11.777-3.03C240 187 240 187 239.375 184c1.964-9.428 9.807-8.716 17.68-8.647"/><path fill="#E82590" d="M369.642 11.039c3.425.144 6.85.207 10.278.277 6.697.154 13.388.388 20.08.684-1.75 4.875-1.75 4.875-4 6l-1 2c-1 2-1 2-3 3l-1 2c-1 2-1 2-3 3l-1 2c-1 2-1 2-3 3l-1 2c-1 2-1 2-3 3l-.938 1.937C378 42 378 42 375 44c-2.487.24-2.487.24-5.481.227h-3.397l-3.665-.032-3.754-.008q-4.935-.016-9.868-.05c-3.359-.02-6.717-.03-10.075-.04Q328.88 44.065 319 44c.871-4.3 3.15-7.04 5.875-10.375l2.68-3.336 1.638-1.89c1.982-2.483 1.982-2.483 3.6-5.967 7.968-14.585 22.04-12.085 36.849-11.393M161.642 11.039c3.425.144 6.85.207 10.278.277 6.697.154 13.388.388 20.08.684-1.75 4.875-1.75 4.875-4 6l-1 2c-1 2-1 2-3 3l-1 2c-1 2-1 2-3 3l-1 2c-1 2-1 2-3 3l-1 2c-1 2-1 2-3 3l-.938 1.937C170 42 170 42 167 44c-2.487.24-2.487.24-5.481.227h-3.397l-3.665-.032-3.754-.008q-4.935-.016-9.868-.05c-3.359-.02-6.717-.03-10.075-.04Q120.88 44.065 111 44c.871-4.3 3.15-7.04 5.875-10.375l2.68-3.336 1.638-1.89c1.982-2.483 1.982-2.483 3.6-5.967 7.968-14.585 22.04-12.085 36.849-11.393"/><path fill="#00B4E4" d="M266.041 11.176c3.378.124 6.757.178 10.137.238 6.61.132 13.215.332 19.822.586l-4.423 5.909c-2.278 3.02-4.61 5.996-6.952 8.966l-1.305 1.66a223 223 0 0 1-2.705 3.37c-1.683 2.114-1.683 2.114-3.198 4.615-4.686 6.95-4.686 6.95-9.294 8.36-3.426.276-6.72.246-10.154.097l-3.733-.043c-3.914-.056-7.823-.181-11.736-.309-2.661-.056-5.323-.096-7.984-.137-6.508-.11-13.011-.277-19.516-.488 1.354-2.783 2.74-5.087 4.723-7.469l1.634-1.984 1.706-2.047q1.646-1.98 3.285-3.969l1.836-2.108c1.958-2.427 1.958-2.427 3.235-5.604 6.9-13.425 21.466-10.175 34.622-9.643M60.648 11.61c1.013.005 2.025.01 3.069.017 3.22.022 6.438.072 9.658.123q3.284.03 6.566.055 8.03.067 16.059.195l-2.83 3.782-1.593 2.127c-2.278 3.02-4.61 5.996-6.952 8.966l-1.305 1.66a196 196 0 0 1-2.788 3.459c-1.63 2.052-1.63 2.052-3.103 4.657-2.837 4.39-4.733 6.967-9.973 8.146-4.167.308-8.293.078-12.456-.172a680 680 0 0 0-4.371-.137c-3.547-.11-7.087-.281-10.629-.488a694 694 0 0 1-.25-10.625l-.102-3.027c-.078-5.96.106-9.78 4.352-14.348 5.396-4.64 9.873-4.534 16.648-4.39M458.45 11.188c7.17 1.64 9.458 4.674 13.55 10.812v22h-49c1.509-3.017 2.64-4.966 4.723-7.469l1.616-1.965q1.752-2.1 3.51-4.195c2.709-3.26 5.294-6.452 7.483-10.09 5.033-8.083 8.936-9.551 18.117-9.093"/><path fill="#D07C40" d="M40 180v41c-5.65-1.883-11.029-3.75-16.441-6.137l-1.98-.861q-3.073-1.34-6.142-2.69l-4.212-1.837Q6.11 207.243 1 205v-3l2.212-1.266q4.148-2.376 8.292-4.758l3.558-2.04c7.07-4.045 14.022-8.19 20.818-12.684C38 180 38 180 40 180M472 180c4.142 1.657 7.81 3.518 11.621 5.773l1.886 1.107q1.966 1.155 3.93 2.314a2136 2136 0 0 0 5.971 3.51q1.92 1.127 3.838 2.257l1.781 1.045c3.746 2.216 7.373 4.553 10.973 6.994-3.547 2.989-7.545 4.737-11.758 6.574l-2.255.996q-2.351 1.037-4.705 2.065a1773 1773 0 0 0-7.216 3.18l-4.574 2.01-2.184.965C474.23 221 474.23 221 472 221z"/><path fill="#D6D9DB" d="M173.313 114.563c2.34 3.381 3.145 6.327 2.687 10.437-1.318 2.81-2.557 3.869-5 6-3.322 1.107-5.235 1.182-8.625.375-3.105-1.798-4.6-3.233-6.375-6.375-.346-4.143.331-7.1 2.813-10.437 4.74-3.387 9.596-3.313 14.5 0"/></svg>